#Comment line ignore any data following # character 
#Hierarchical Translation and Rotation (.htr) file 
[Header]	
#Header keywords are followed by a single value 
FileType HTR		#Single word string
DataType HTRS		#Translation followed by rotation and scale data
FileVersion 1		#integer
NumSegments 84		#integer
NumFrames 2		#integer
DataFrameRate 30		#integer, data frame rate in this file
EulerRotationOrder ZYX
CalibrationUnits mm
RotationUnits Degrees
GlobalAxisofGravity Y
BoneLengthAxis Y
ScaleFactor 1.00
[SegmentNames&Hierarchy]
#CHILD	PARENT
MASTER GLOBAL
root MASTER
chest root
L_mid_tent01 root
R_mid_tent01 root
spine01 root
Bip01_Neck chest
L_humerus chest
R_humerus chest
weapon_bone chest
Bip01_Head Bip01_Neck
eye_left_bone Bip01_Head
eye_right_bone Bip01_Head
L_forearm L_humerus
L_front_hand L_forearm
L_weapon_bone L_forearm
L_front_hand01_01 L_front_hand
L_front_hand02_01 L_front_hand
L_front_hand03_01 L_front_hand
L_front_hand01_02 L_front_hand01_01
L_front_hand02_02 L_front_hand02_01
L_front_hand03_02 L_front_hand03_01
R_forearm R_humerus
R_front_hand R_forearm
R_weapon_bone R_forearm
R_front_hand01_01 R_front_hand
R_front_hand02_01 R_front_hand
R_front_hand03_01 R_front_hand
R_front_hand01_02 R_front_hand01_01
R_front_hand02_02 R_front_hand02_01
R_front_hand03_02 R_front_hand03_01
null_rope01_connect L_mid_tent01
Rope1_Seg01 null_rope01_connect
Rope1_Seg02 Rope1_Seg01
Rope1_Seg03 Rope1_Seg02
Rope1_Seg04 Rope1_Seg03
Rope1_Seg05 Rope1_Seg04
Rope1_Seg06 Rope1_Seg05
Rope1_Seg07 Rope1_Seg06
Rope1_Seg09 Rope1_Seg07
L_mid_hand01 Rope1_Seg09
L_mid_hand02 Rope1_Seg09
L_mid_hand03 Rope1_Seg09
null_rope02_connect R_mid_tent01
Rope2_Seg01 null_rope02_connect
Rope2_Seg02 Rope2_Seg01
Rope2_Seg03 Rope2_Seg02
Rope2_Seg04 Rope2_Seg03
Rope2_Seg05 Rope2_Seg04
Rope2_Seg06 Rope2_Seg05
Rope2_Seg07 Rope2_Seg06
Rope2_Seg09 Rope2_Seg07
R_mid_hand01 Rope2_Seg09
R_mid_hand02 Rope2_Seg09
R_mid_hand03 Rope2_Seg09
spine02 spine01
spine03 spine02
pelvis spine03
null_rope03_connect pelvis
null_rope04_connect pelvis
Rope3_Seg01 null_rope03_connect
Rope3_Seg02 Rope3_Seg01
Rope3_Seg03 Rope3_Seg02
Rope3_Seg04 Rope3_Seg03
Rope3_Seg05 Rope3_Seg04
Rope3_Seg06 Rope3_Seg05
Rope3_Seg07 Rope3_Seg06
Rope3_Seg08 Rope3_Seg07
Rope3_Seg09 Rope3_Seg08
R_rear_hand01 Rope3_Seg09
R_rear_hand02 Rope3_Seg09
R_rear_hand03 Rope3_Seg09
Rope4_Seg01 null_rope04_connect
Rope4_Seg02 Rope4_Seg01
Rope4_Seg03 Rope4_Seg02
Rope4_Seg04 Rope4_Seg03
Rope4_Seg05 Rope4_Seg04
Rope4_Seg06 Rope4_Seg05
Rope4_Seg07 Rope4_Seg06
Rope4_Seg08 Rope4_Seg07
Rope4_Seg09 Rope4_Seg08
L_rear_hand01 Rope4_Seg09
L_rear_hand02 Rope4_Seg09
L_rear_hand03 Rope4_Seg09
[BasePosition]
#SegmentName Tx, Ty, Tz, Rx, Ry, Rz, BoneLength
MASTER 0.000000 0.000000 0.000000 -90.000000 0.000000 0.000000 10.000000 
root 0.000000 0.000000 0.000000 0.000000 0.000000 0.000000 10.000000 
chest 0.000000 0.000000 0.000000 0.000000 0.000000 0.000000 10.000000 
L_mid_tent01 0.000000 0.000000 0.000000 0.000000 0.000000 0.000000 10.000000 
R_mid_tent01 0.000000 0.000000 0.000000 0.000000 0.000000 0.000000 10.000000 
spine01 0.000000 0.000000 0.000000 0.000000 0.000000 0.000000 10.000000 
Bip01_Neck 0.000000 0.000000 0.000000 0.000000 0.000000 0.000000 10.000000 
L_humerus 0.000000 0.000000 0.000000 0.000000 0.000000 0.000000 10.000000 
R_humerus 0.000000 0.000000 0.000000 0.000000 0.000000 0.000000 10.000000 
weapon_bone 0.000000 0.000000 0.000000 0.000000 0.000000 0.000000 10.000000 
Bip01_Head 0.000000 0.000000 0.000000 0.000000 0.000000 0.000000 10.000000 
eye_left_bone 0.000000 0.000000 0.000000 0.000000 0.000000 0.000000 10.000000 
eye_right_bone 0.000000 0.000000 0.000000 0.000000 0.000000 0.000000 10.000000 
L_forearm 0.000000 0.000000 0.000000 0.000000 0.000000 0.000000 10.000000 
L_front_hand 0.000000 0.000000 0.000000 0.000000 0.000000 0.000000 10.000000 
L_weapon_bone 0.000000 0.000000 0.000000 0.000000 0.000000 0.000000 10.000000 
L_front_hand01_01 0.000000 0.000000 0.000000 0.000000 0.000000 0.000000 10.000000 
L_front_hand02_01 0.000000 0.000000 0.000000 0.000000 0.000000 0.000000 10.000000 
L_front_hand03_01 0.000000 0.000000 0.000000 0.000000 0.000000 0.000000 10.000000 
L_front_hand01_02 0.000000 0.000000 0.000000 0.000000 0.000000 0.000000 10.000000 
L_front_hand02_02 0.000000 0.000000 0.000000 0.000000 0.000000 0.000000 10.000000 
L_front_hand03_02 0.000000 0.000000 0.000000 0.000000 0.000000 0.000000 10.000000 
R_forearm 0.000000 0.000000 0.000000 0.000000 0.000000 0.000000 10.000000 
R_front_hand 0.000000 0.000000 0.000000 0.000000 0.000000 0.000000 10.000000 
R_weapon_bone 0.000000 0.000000 0.000000 0.000000 0.000000 0.000000 10.000000 
R_front_hand01_01 0.000000 0.000000 0.000000 0.000000 0.000000 0.000000 10.000000 
R_front_hand02_01 0.000000 0.000000 0.000000 0.000000 0.000000 0.000000 10.000000 
R_front_hand03_01 0.000000 0.000000 0.000000 0.000000 0.000000 0.000000 10.000000 
R_front_hand01_02 0.000000 0.000000 0.000000 0.000000 0.000000 0.000000 10.000000 
R_front_hand02_02 0.000000 0.000000 0.000000 0.000000 0.000000 0.000000 10.000000 
R_front_hand03_02 0.000000 0.000000 0.000000 0.000000 0.000000 0.000000 10.000000 
null_rope01_connect 0.000000 0.000000 0.000000 0.000000 0.000000 0.000000 10.000000 
Rope1_Seg01 0.000000 0.000000 0.000000 0.000000 0.000000 0.000000 10.000000 
Rope1_Seg02 0.000000 0.000000 0.000000 0.000000 0.000000 0.000000 10.000000 
Rope1_Seg03 0.000000 0.000000 0.000000 0.000000 0.000000 0.000000 10.000000 
Rope1_Seg04 0.000000 0.000000 0.000000 0.000000 0.000000 0.000000 10.000000 
Rope1_Seg05 0.000000 0.000000 0.000000 0.000000 0.000000 0.000000 10.000000 
Rope1_Seg06 0.000000 0.000000 0.000000 0.000000 0.000000 0.000000 10.000000 
Rope1_Seg07 0.000000 0.000000 0.000000 0.000000 0.000000 0.000000 10.000000 
Rope1_Seg09 0.000000 0.000000 0.000000 0.000000 0.000000 0.000000 10.000000 
L_mid_hand01 0.000000 0.000000 0.000000 0.000000 0.000000 0.000000 10.000000 
L_mid_hand02 0.000000 0.000000 0.000000 0.000000 0.000000 0.000000 10.000000 
L_mid_hand03 0.000000 0.000000 0.000000 0.000000 0.000000 0.000000 10.000000 
null_rope02_connect 0.000000 0.000000 0.000000 0.000000 0.000000 0.000000 10.000000 
Rope2_Seg01 0.000000 0.000000 0.000000 0.000000 0.000000 0.000000 10.000000 
Rope2_Seg02 0.000000 0.000000 0.000000 0.000000 0.000000 0.000000 10.000000 
Rope2_Seg03 0.000000 0.000000 0.000000 0.000000 0.000000 0.000000 10.000000 
Rope2_Seg04 0.000000 0.000000 0.000000 0.000000 0.000000 0.000000 10.000000 
Rope2_Seg05 0.000000 0.000000 0.000000 0.000000 0.000000 0.000000 10.000000 
Rope2_Seg06 0.000000 0.000000 0.000000 0.000000 0.000000 0.000000 10.000000 
Rope2_Seg07 0.000000 0.000000 0.000000 0.000000 0.000000 0.000000 10.000000 
Rope2_Seg09 0.000000 0.000000 0.000000 0.000000 0.000000 0.000000 10.000000 
R_mid_hand01 0.000000 0.000000 0.000000 0.000000 0.000000 0.000000 10.000000 
R_mid_hand02 0.000000 0.000000 0.000000 0.000000 0.000000 0.000000 10.000000 
R_mid_hand03 0.000000 0.000000 0.000000 0.000000 0.000000 0.000000 10.000000 
spine02 0.000000 0.000000 0.000000 0.000000 0.000000 0.000000 10.000000 
spine03 0.000000 0.000000 0.000000 0.000000 0.000000 0.000000 10.000000 
pelvis 0.000000 0.000000 0.000000 0.000000 0.000000 0.000000 10.000000 
null_rope03_connect 0.000000 0.000000 0.000000 0.000000 0.000000 0.000000 10.000000 
null_rope04_connect 0.000000 0.000000 0.000000 0.000000 0.000000 0.000000 10.000000 
Rope3_Seg01 0.000000 0.000000 0.000000 0.000000 0.000000 0.000000 10.000000 
Rope3_Seg02 0.000000 0.000000 0.000000 0.000000 0.000000 0.000000 10.000000 
Rope3_Seg03 0.000000 0.000000 0.000000 0.000000 0.000000 0.000000 10.000000 
Rope3_Seg04 0.000000 0.000000 0.000000 0.000000 0.000000 0.000000 10.000000 
Rope3_Seg05 0.000000 0.000000 0.000000 0.000000 0.000000 0.000000 10.000000 
Rope3_Seg06 0.000000 0.000000 0.000000 0.000000 0.000000 0.000000 10.000000 
Rope3_Seg07 0.000000 0.000000 0.000000 0.000000 0.000000 0.000000 10.000000 
Rope3_Seg08 0.000000 0.000000 0.000000 0.000000 0.000000 0.000000 10.000000 
Rope3_Seg09 0.000000 0.000000 0.000000 0.000000 0.000000 0.000000 10.000000 
R_rear_hand01 0.000000 0.000000 0.000000 0.000000 0.000000 0.000000 10.000000 
R_rear_hand02 0.000000 0.000000 0.000000 0.000000 0.000000 0.000000 10.000000 
R_rear_hand03 0.000000 0.000000 0.000000 0.000000 0.000000 0.000000 10.000000 
Rope4_Seg01 0.000000 0.000000 0.000000 0.000000 0.000000 0.000000 10.000000 
Rope4_Seg02 0.000000 0.000000 0.000000 0.000000 0.000000 0.000000 10.000000 
Rope4_Seg03 0.000000 0.000000 0.000000 0.000000 0.000000 0.000000 10.000000 
Rope4_Seg04 0.000000 0.000000 0.000000 0.000000 0.000000 0.000000 10.000000 
Rope4_Seg05 0.000000 0.000000 0.000000 0.000000 0.000000 0.000000 10.000000 
Rope4_Seg06 0.000000 0.000000 0.000000 0.000000 0.000000 0.000000 10.000000 
Rope4_Seg07 0.000000 0.000000 0.000000 0.000000 0.000000 0.000000 10.000000 
Rope4_Seg08 0.000000 0.000000 0.000000 0.000000 0.000000 0.000000 10.000000 
Rope4_Seg09 0.000000 0.000000 0.000000 0.000000 0.000000 0.000000 10.000000 
L_rear_hand01 0.000000 0.000000 0.000000 0.000000 0.000000 0.000000 10.000000 
L_rear_hand02 0.000000 0.000000 0.000000 0.000000 0.000000 0.000000 10.000000 
L_rear_hand03 0.000000 0.000000 0.000000 0.000000 0.000000 0.000000 10.000000 
#Beginning of Data. Separated by tabs
#Fr	Tx	Ty	Tz	Rx	Ry	Rz	SF
[MASTER]
19 -0.000493 3281.642334 4107.578125 0.001660 0.001660 0.001660 5257.506836
20 -0.000512 3411.296875 4119.679688 0.001660 0.001660 0.001660 5348.710938
[root]
19 -28.645960 -25.150419 1479.162842 -95.201187 -18.541439 -92.023705 1479.654053
20 -25.738510 -16.888094 1471.778564 -96.061356 -19.603197 -91.797882 1472.100464
[chest]
19 -84.512650 -34.090519 0.000000 -1.719459 0.749712 -173.514877 91.129311
20 -84.512650 -34.090519 0.000000 -1.803943 0.863882 -175.953400 91.129311
[L_mid_tent01]
19 27.299160 22.179451 -249.918701 3.368165 33.194813 80.846382 252.381714
20 27.299166 22.179470 -249.918701 3.609268 34.713547 81.090897 252.381729
[R_mid_tent01]
19 23.228794 24.509907 226.238495 155.504501 -45.805157 94.665932 228.744751
20 23.228794 24.509907 226.238495 156.657745 -46.716255 93.183006 228.744751
[spine01]
19 -0.361383 -0.195265 0.000000 0.001949 0.001308 22.276978 0.410763
20 -0.361383 -0.195265 0.000000 0.001948 0.001309 22.217323 0.410763
[Bip01_Neck]
19 165.484543 71.581718 0.000119 176.643677 -1.657967 43.431911 180.302734
20 165.484543 71.581718 0.000119 176.643677 -1.657967 43.431911 180.302734
[L_humerus]
19 -13.983130 -135.272980 -120.471481 -6.037969 67.315506 83.949455 181.680161
20 -13.983130 -135.272980 -120.471481 -5.893061 67.730736 84.112701 181.680161
[R_humerus]
19 -13.983309 -135.273102 125.287651 27.070063 -68.269028 68.602341 184.909012
20 -13.983309 -135.273102 125.287651 27.279964 -68.700363 68.386795 184.909012
[weapon_bone]
19 235.964890 -300.705902 0.000000 0.000000 -89.951546 -128.212341 382.234833
20 235.964890 -300.705902 0.000000 0.000000 -89.951546 -128.212341 382.234833
[Bip01_Head]
19 213.327026 186.042175 7.559204 5.200446 6.151311 -43.834991 283.155884
20 213.327026 186.042175 7.559209 5.200446 6.151311 -43.834991 283.155884
[eye_left_bone]
19 -24.626970 125.451866 -64.772606 0.000000 -90.000000 -99.840431 143.318359
20 -24.626970 125.451866 -64.772606 0.000000 -90.000000 -99.840431 143.318359
[eye_right_bone]
19 -24.626970 125.451866 64.327362 0.000000 -89.965736 80.156380 143.117676
20 -24.626970 125.451866 64.327362 0.000000 -89.965736 80.156380 143.117676
[L_forearm]
19 322.776093 0.000000 -0.000119 0.000407 -0.002312 -109.956200 322.776093
20 322.776093 0.000000 -0.000119 0.000404 -0.002312 -109.807289 322.776093
[L_front_hand]
19 241.149185 -0.042021 -3.300071 -178.667953 -1.835447 -27.422350 241.171753
20 241.149185 -0.042021 -3.300071 -178.667953 -1.835447 -27.422350 241.171753
[L_weapon_bone]
19 156.183838 0.000000 0.000000 0.000014 0.000007 0.000001 156.183838
20 156.183838 0.000000 0.000000 0.000014 0.000007 0.000001 156.183838
[L_front_hand01_01]
19 86.095154 20.947098 -0.655860 -0.291918 -0.522544 67.227623 88.609184
20 86.095154 20.947098 -0.655860 -0.299135 -0.518030 67.911949 88.609184
[L_front_hand02_01]
19 86.935165 -11.437475 24.513514 143.299149 -55.645802 -48.269920 91.046425
20 86.935165 -11.437475 24.513514 144.114838 -56.047688 -49.250378 91.046425
[L_front_hand03_01]
19 86.637497 -14.123976 -20.424902 -143.556351 53.862476 -50.232788 90.126129
20 86.637497 -14.123976 -20.424902 -144.319244 54.262909 -51.171421 90.126129
[L_front_hand01_02]
19 71.020905 -0.000179 0.000030 0.000316 -0.002326 -105.462708 71.020905
20 71.020905 -0.000179 0.000030 0.000317 -0.002326 -105.501518 71.020905
[L_front_hand02_02]
19 71.020927 -0.000119 0.000060 0.000316 -0.002326 -105.462708 71.020927
20 71.020927 -0.000119 0.000060 0.000317 -0.002326 -105.501518 71.020927
[L_front_hand03_02]
19 71.020905 -0.000060 0.000060 0.000316 -0.002326 -105.462708 71.020905
20 71.020905 -0.000060 0.000060 0.000317 -0.002326 -105.501518 71.020905
[R_forearm]
19 322.776428 -0.000060 0.000030 0.201793 0.066114 -108.605453 322.776428
20 322.776428 -0.000060 0.000030 0.201879 0.065846 -108.453423 322.776428
[R_front_hand]
19 238.847015 -0.006795 2.210259 -2.635298 -10.645461 -26.312506 238.857239
20 238.847015 -0.006795 2.210259 -2.635298 -10.645461 -26.312506 238.857239
[R_weapon_bone]
19 155.664093 0.002503 -0.000030 0.003487 0.001180 -90.988930 155.664078
20 155.664093 0.002503 -0.000030 0.003487 0.001180 -90.988930 155.664078
[R_front_hand01_01]
19 87.624611 14.231146 22.918642 -141.470367 -54.661602 46.147430 91.683487
20 87.624611 14.231146 22.918642 -142.976730 -55.478233 47.985161 91.683487
[R_front_hand02_01]
19 89.356956 14.367283 -19.491137 142.182632 53.068485 48.753605 92.579636
20 89.356956 14.367283 -19.491137 143.617310 53.874451 50.539894 92.579636
[R_front_hand03_01]
19 87.286232 -22.307278 -0.143439 0.083738 -0.444647 -65.861671 90.091743
20 87.286232 -22.307278 -0.143439 0.095752 -0.445027 -67.192543 90.091743
[R_front_hand01_02]
19 71.020905 0.000060 0.000119 0.002323 -0.000334 106.381714 71.020905
20 71.020905 0.000060 0.000119 0.002323 -0.000334 106.381714 71.020905
[R_front_hand02_02]
19 71.020844 -0.000030 -0.000119 0.002323 -0.000334 106.381714 71.020836
20 71.020844 -0.000030 -0.000119 0.002323 -0.000334 106.381714 71.020836
[R_front_hand03_02]
19 71.020905 0.000000 0.000030 0.002323 -0.000334 106.381714 71.020905
20 71.020905 0.000000 0.000030 0.002323 -0.000334 106.381714 71.020905
[null_rope01_connect]
19 328.732483 0.000000 -0.000238 -145.866592 -50.513683 174.384521 328.732483
20 328.732483 0.000000 -0.000238 -145.391327 -48.250866 174.977615 328.732483
[Rope1_Seg01]
19 0.000048 -0.000010 0.000038 65.195412 -32.401604 -135.974380 0.000062
20 0.000046 -0.000008 0.000032 48.776638 -36.129784 -120.566826 0.000057
[Rope1_Seg02]
19 139.999863 -0.000179 0.000000 3.475805 -0.764340 -6.764688 139.999863
20 139.999863 -0.000179 0.000000 1.020404 1.674886 -4.466005 139.999863
[Rope1_Seg03]
19 139.999924 0.000060 -0.000060 50.187469 -10.406353 -47.831074 139.999924
20 139.999924 0.000060 -0.000060 9.475179 4.007795 -19.190933 139.999924
[Rope1_Seg04]
19 139.999924 -0.000060 -0.000119 108.172211 -10.471103 -108.584465 139.999924
20 139.999924 -0.000060 -0.000119 -174.821182 33.514713 -40.197540 139.999924
[Rope1_Seg05]
19 139.999832 0.000119 -0.000060 1.593588 -30.942551 -4.746170 139.999832
20 139.999832 0.000119 -0.000060 57.149994 -46.764160 -15.416473 139.999832
[Rope1_Seg06]
19 139.999954 0.000119 -0.000060 -0.042813 -0.349507 -0.013027 139.999954
20 139.999954 0.000119 -0.000060 -0.194649 -4.154090 4.726433 139.999954
[Rope1_Seg07]
19 139.999985 0.000060 0.000000 0.006605 0.001660 0.001660 139.999985
20 139.999985 0.000060 0.000000 0.006595 0.001656 0.001677 139.999985
[Rope1_Seg09]
19 121.602913 0.000119 -0.000089 -89.793175 -1.359789 0.847147 121.602913
20 121.602913 0.000119 -0.000089 -89.793175 -1.359789 0.847147 121.602913
[L_mid_hand01]
19 103.859421 1.038730 8.195221 130.544373 -67.584534 -38.866943 104.187431
20 103.859421 1.038730 8.195221 130.544373 -67.584534 -38.866943 104.187431
[L_mid_hand02]
19 105.572853 -4.139662 -10.864139 -168.923172 43.409309 -73.498894 106.211075
20 105.572853 -4.139662 -10.864139 -168.923172 43.409309 -73.498886 106.211075
[L_mid_hand03]
19 104.641464 17.579376 -3.913581 -6.012628 17.808178 74.893669 106.179977
20 104.641464 17.579376 -3.913581 -6.012627 17.808174 74.893669 106.179977
[null_rope02_connect]
19 328.732849 0.000179 -0.000119 -132.794281 45.427437 23.408424 328.732849
20 328.732849 0.000179 -0.000119 -131.501923 45.691730 22.701591 328.732849
[Rope2_Seg01]
19 0.000067 0.000038 0.000000 2.722187 -1.989483 -34.064613 0.000077
20 0.000068 0.000032 0.000000 35.968815 -7.949474 -48.240807 0.000075
[Rope2_Seg02]
19 139.999741 -0.000060 -0.000119 6.321583 1.946421 -3.359128 139.999756
20 139.999741 -0.000060 -0.000119 8.238149 -0.942070 -4.118243 139.999756
[Rope2_Seg03]
19 140.000107 0.000030 0.000000 113.008675 22.138361 -50.199364 140.000107
20 140.000107 0.000030 0.000000 28.173029 -1.658726 -13.620872 140.000107
[Rope2_Seg04]
19 139.999802 0.000000 -0.000060 -28.742735 -33.399448 57.078579 139.999802
20 139.999802 0.000000 -0.000060 35.326260 -46.286324 -22.747360 139.999802
[Rope2_Seg05]
19 139.999985 -0.000060 0.000119 1.812496 0.944712 10.041077 139.999985
20 139.999985 -0.000060 0.000119 -3.414997 -7.677907 15.345063 139.999985
[Rope2_Seg06]
19 139.999893 -0.000030 -0.000119 0.468871 0.100167 2.519651 139.999893
20 139.999893 -0.000030 -0.000119 -0.208905 -3.491392 2.848463 139.999893
[Rope2_Seg07]
19 139.999893 0.000060 -0.000060 -0.047798 0.001661 0.011552 139.999893
20 139.999893 0.000060 -0.000060 -0.064569 -0.987073 0.798509 139.999893
[Rope2_Seg09]
19 121.338966 0.000089 -0.000060 33.793236 -1.359788 -0.847141 121.338966
20 121.338966 0.000089 -0.000060 33.793236 -1.359788 -0.847141 121.338966
[R_mid_hand01]
19 104.680779 11.144459 -10.335981 -20.399694 43.830383 64.493835 105.778534
20 104.680779 11.144459 -10.335981 -17.390713 44.882233 68.793839 105.778534
[R_mid_hand02]
19 104.070427 2.443552 8.231699 55.242626 -64.206024 32.532070 104.424065
20 104.070427 2.443552 8.231699 50.967758 -66.804398 37.227440 104.424065
[R_mid_hand03]
19 106.028137 -11.221827 -5.996406 -175.861618 15.275425 -71.940262 106.788818
20 106.028137 -11.221827 -5.996406 -176.756866 15.486363 -75.308266 106.788818
[spine02]
19 129.756927 0.001550 0.000119 0.411605 -4.039367 -13.679140 129.756927
20 129.756927 0.001550 0.000119 0.397360 -4.040936 -13.484299 129.756927
[spine03]
19 78.614166 0.081291 -4.899013 1.926535 3.815174 16.959000 78.766708
20 78.614166 0.081272 -4.899014 1.917271 3.819136 16.823627 78.766708
[pelvis]
19 169.435242 0.051022 0.000000 -0.061976 -0.179711 15.050218 169.435257
20 169.435242 0.051022 0.000000 -0.061577 -0.179848 14.795831 169.435257
[null_rope03_connect]
19 -1.257226 -2.466202 137.391083 -137.514465 -84.883965 -154.581131 137.418976
20 -1.257226 -2.466202 137.391083 -141.777847 -84.186615 -149.023972 137.418976
[null_rope04_connect]
19 -1.259640 -2.480268 -137.844437 -137.514465 -84.883965 -154.581131 137.872513
20 -1.259640 -2.480268 -137.844437 -141.777847 -84.186615 -149.023972 137.872513
[Rope3_Seg01]
19 0.000010 0.000010 -0.000038 -130.629562 25.162298 -74.089020 0.000040
20 0.000010 0.000008 -0.000032 -132.688553 21.542826 -80.619690 0.000034
[Rope3_Seg02]
19 139.999924 -0.000119 0.000060 0.364973 4.593983 6.578214 139.999924
20 139.999924 -0.000119 0.000060 0.152571 2.421600 3.626526 139.999924
[Rope3_Seg03]
19 139.999924 -0.000119 0.000119 0.710696 6.344188 8.831981 139.999924
20 139.999924 -0.000119 0.000119 0.262058 3.243650 4.472998 139.999924
[Rope3_Seg04]
19 139.999924 0.000119 0.000000 1.998689 10.139709 13.487589 139.999924
20 139.999924 0.000119 0.000000 0.475394 4.579072 5.893533 139.999924
[Rope3_Seg05]
19 139.999924 -0.000238 0.000060 -1.088047 -4.489987 -3.401186 139.999924
20 139.999924 -0.000238 0.000060 -0.735455 -2.727755 -0.623949 139.999924
[Rope3_Seg06]
19 139.999893 -0.000119 -0.000060 -0.068443 -8.503885 -8.874356 139.999893
20 139.999893 -0.000119 -0.000060 -0.202650 -3.241923 -1.872783 139.999893
[Rope3_Seg07]
19 139.999771 0.000060 -0.000119 0.251388 -3.390754 -3.251999 139.999771
20 139.999771 0.000060 -0.000119 0.204864 -1.332887 -0.460699 139.999771
[Rope3_Seg08]
19 139.999985 -0.000060 0.000000 0.401415 -2.152890 -2.053871 139.999985
20 139.999985 -0.000060 0.000000 0.350059 -0.858004 -0.292758 139.999985
[Rope3_Seg09]
19 90.185997 -0.000179 -0.000060 89.793228 -1.359877 -0.847183 90.185997
20 90.185997 -0.000179 -0.000060 89.793228 -1.359877 -0.847183 90.185997
[R_rear_hand01]
19 103.366196 -6.073594 -10.757982 -175.914093 24.346796 -69.567566 104.101845
20 103.366196 -6.073594 -10.757982 -177.218140 24.518015 -72.727440 104.101845
[R_rear_hand02]
19 100.509819 12.039542 -7.992327 -15.704349 35.886925 67.395027 101.543350
20 100.509819 12.039542 -7.992327 -13.655105 36.621037 70.859291 101.543350
[R_rear_hand03]
19 101.539970 5.215704 5.435467 74.640678 -68.020927 18.152246 101.819031
20 101.539970 5.215704 5.435467 72.467628 -70.792900 20.476631 101.819031
[Rope4_Seg01]
19 -0.000012 -0.000010 -0.000496 38.968239 19.068750 -131.025986 0.000496
20 -0.000012 -0.000008 -0.000515 41.294022 19.577444 -125.642776 0.000515
[Rope4_Seg02]
19 139.999985 0.000060 0.000119 0.605690 8.086629 4.681562 139.999985
20 139.999985 0.000060 0.000119 0.586930 5.633808 4.339562 139.999985
[Rope4_Seg03]
19 139.999924 0.000000 -0.000238 0.966130 12.777773 7.400758 139.999924
20 139.999924 0.000000 -0.000238 0.693162 8.669229 6.624795 139.999924
[Rope4_Seg04]
19 139.999985 0.000000 0.000119 3.667578 30.083349 21.160765 139.999985
20 139.999985 0.000000 0.000119 1.625224 23.154167 21.195545 139.999985
[Rope4_Seg05]
19 139.999802 -0.000060 -0.000119 0.616977 7.421538 3.065261 139.999802
20 139.999802 -0.000060 -0.000119 1.564401 2.214519 -1.566073 139.999802
[Rope4_Seg06]
19 139.999924 0.000000 0.000060 9.878726 -24.469597 -22.665855 139.999924
20 139.999924 0.000000 0.000060 7.688477 -18.503281 -22.102623 139.999924
[Rope4_Seg07]
19 139.999802 0.000000 0.000000 1.535365 -12.040699 -9.036971 139.999802
20 139.999802 0.000000 0.000000 0.591572 -5.630266 -6.041578 139.999802
[Rope4_Seg08]
19 139.999924 0.000000 0.000119 -1.336048 -5.062301 -3.801667 139.999924
20 139.999924 0.000000 0.000119 -1.454838 -2.887768 -3.084020 139.999924
[Rope4_Seg09]
19 90.185791 0.000060 0.000060 -135.617828 2.228885 0.850567 90.185791
20 90.185791 0.000060 0.000060 -135.617828 2.228885 0.850567 90.185791
[L_rear_hand01]
19 101.696655 -8.392275 -7.654577 -12.874829 -36.868488 107.832764 102.329041
20 101.696655 -8.392275 -7.654577 -12.874829 -36.868488 107.832764 102.329041
[L_rear_hand02]
19 102.726799 -1.568258 5.773216 71.484581 71.816628 158.486160 102.900848
20 102.726799 -1.568258 5.773216 71.484581 71.816628 158.486160 102.900848
[L_rear_hand03]
19 104.552910 9.721220 -10.420293 -177.714203 -24.565966 -106.089035 105.519653
20 104.552910 9.721220 -10.420293 -177.714203 -24.565960 -106.089035 105.519653
